<?xml version="1.0" encoding="utf-8"?>
<!-- Generator: Adobe Illustrator 15.1.0, SVG Export Plug-In . SVG Version: 6.00 Build 0)  -->
<!DOCTYPE svg PUBLIC "-//W3C//DTD SVG 1.1//EN" "http://www.w3.org/Graphics/SVG/1.1/DTD/svg11.dtd">
<svg version="1.1" id="Layer_1" xmlns="http://www.w3.org/2000/svg" xmlns:xlink="http://www.w3.org/1999/xlink" x="0px" y="0px"
	 width="228px" height="70.196px" viewBox="0 0 228 70.196" enable-background="new 0 0 228 70.196" xml:space="preserve">
<g>
	<g>
		<path fill="#006838" d="M115.446,3.335l0.712-2.402h11.106l-2.061,2.984c1.707-1.881,3.873-2.847,6.499-2.9l5.347,0.084
			c3.836-0.167,5.302,0.772,4.401,2.816c-0.352,0.994-0.889,2.143-1.607,3.44c-0.721,1.295-1.672,2.749-2.865,4.352l-10.844,15.917
			l0.263,1.74l-12.73-0.084c1.554-1.546,2.917-3.04,4.087-4.478l11.278-16.661l0.468-0.831c-1.204-1.214-3.461-1.104-6.787,0.335
			l-1.626,2.235L109.61,26.795l-0.467,0.996l-0.281,1.491H96.679c1.051-0.719,2.123-1.77,3.21-3.149L115.446,3.335z"/>
		<path fill="#006838" d="M146.352,4.245l2.099-3.065h20.643l3.659,0.5c2.358,0.277,2.512,2.375,0.453,6.299l-11.199,16.496
			l-0.547,0.996c-0.714,1.051-1.247,2.184-1.591,3.396l-0.316,0.5h-10.859l1.209-2.403l0.072-0.335
			c-0.584,0.774-1.486,1.521-2.705,2.238l-1.31,0.5h-12.27l-1.104-0.828c0.383-2.712,1.655-5.612,3.823-8.706
			c2.18-3.479,4.304-5.829,6.366-7.048c2.114-1.214,5.087-1.958,8.92-2.235h7.711c1.565-0.276,2.678-0.939,3.331-1.991
			c0.825-1.051,0.761-1.684-0.184-1.907h-15.419L143.9,7.897L146.352,4.245z M154.793,15.438h-3.23
			c-1.02,0.053-1.979,0.858-2.866,2.405l-2.891,4.226l-0.461,1.163c1.335,1.158,3.693,0.91,7.062-0.749
			c0.138-0.165,0.358-0.467,0.677-0.909l0.831-1.247l3.205-4.722C156.891,15.384,156.116,15.329,154.793,15.438z"/>
		<path fill="#006838" d="M179.974,4.497c1.582-1.494,3.74-2.735,6.474-3.729h20.224l1.084,0.165
			c1.528,2.047,0.594,5.166-2.807,9.367h-10.281c1.439-1.547,1.926-2.875,1.449-3.978h-5.057c-0.493,0.219-0.993,0.523-1.505,0.91
			l-0.88,0.995l-2.34,3.398l0.026,0.665c0.583,0.163,1.679,0.277,3.284,0.326c1.603,0.061,3.688,0.061,6.259,0
			c4.885-0.049,6.343,1.442,4.368,4.48l-2.966,4.394l-1.588,2.154l-0.843,0.915l-1.682,1.823c-0.458,0.386-0.941,0.742-1.456,1.077
			c-0.516,0.333-1.069,0.663-1.667,0.993l-2.136,0.665h-23.46l5.105-8.79c0.484,0.389,0.898,0.858,1.249,1.412l15.208-0.084
			c1.291-0.274,2.234-0.884,2.844-1.823c0.794-0.993,0.682-1.519-0.344-1.577l-14.128,0.084l-1.3-0.41l-0.666-0.167
			c-0.058-0.114-0.148-0.249-0.263-0.416c-0.121-0.167-0.197-0.498-0.239-0.993L179.974,4.497z"/>
	</g>
	<g>
		<path fill="#ED1C24" d="M96.797,36.097h19.824l0.67,0.169l1.124,0.458c1.67,1.36,1.939,3.575,0.816,6.636
			c-0.14,0.363-0.471,0.919-0.986,1.668l-8.748,12.897c-0.293,0.391-0.808,0.977-1.53,1.754l-0.2,0.249
			c-1.091,1.03-2.434,2.017-4.013,2.963c-1.426,0.724-2.87,1.168-4.345,1.333l-0.244,0.086L72.5,64.395l2.061-2l15.643-23l0.362-0.5
			l0.71-1.877l0.197-0.96L96.797,36.097z M99.86,41.777l-11.3,16.563h4.922l1.996-0.33c0.411-0.166,0.839-0.375,1.295-0.631
			l0.286-0.163c0.449-0.363,0.922-0.81,1.414-1.335l6.841-10.062l0.429-0.747c-0.028-0.058,0.025-0.169,0.16-0.335
			c0.232-0.502,0.318-1.103,0.251-1.795C105.314,41.831,103.212,41.44,99.86,41.777z"/>
		<path fill="#ED1C24" d="M127.751,37.018c0.823-0.389,1.707-0.723,2.638-1.002h23.62c0.875,0.333,1.363,1.042,1.471,2.128
			l-0.294,1.793l-0.495,0.961l-8.448,12.439l-1.104,0.04h-17.74h-1.249c-2.093,2.752-2.794,4.482-2.089,5.178
			c0.737,0.695,3.082,1,7.043,0.912c3.934-0.082,7.953-0.705,12.062-1.873l-5.35,6.801l-27.15-0.045
			c-1.725-0.776-2.143-1.902-1.254-3.377l0.938-1.923l12.337-18.152c0.315-0.391,0.709-0.798,1.177-1.233
			c0.467-0.428,0.977-0.884,1.532-1.356C126.144,37.837,126.93,37.407,127.751,37.018z M133.045,43.361l-2.931,4.212l9.955-0.037
			l2.85-4.217c0.781-1.561-0.428-2.266-3.638-2.126C136.09,41.107,134.011,41.831,133.045,43.361z"/>
		<path fill="#ED1C24" d="M214.301,27.754h8.555c-0.202,0.142-0.426,0.27-0.667,0.397c-0.235,0.121-0.501,0.256-0.787,0.396
			l-3.947,2.544l-31.921,29.424l-14.979,3.924h-0.212c0.281-0.421,0.466-0.756,0.556-1.003l0.161-0.256l10.953-21.364l-0.104-0.125
			l-24.858,23.871l-16.235,4.553l-0.625,0.081c0.064-0.193,1.414-2.628,4.045-7.304c2.633-4.675,6.547-11.618,11.743-20.824
			l0.3-0.547l0.072-0.244l0.4-0.586l0.451-0.879l0.414-1.333c0.044-0.394,0.081-0.737,0.111-1.044
			c0.033-0.302,0.015-0.584-0.067-0.835c0-0.112,0.019-0.209,0.056-0.291h16.942c-0.53,0.305-1.111,0.765-1.73,1.377l-0.202,0.166
			l-11.62,16.193l-0.079,0.249L181.53,36.6l0.226-0.209h16.067l-8.851,14.898l22.937-20.031l0.808-0.833
			C213.363,29.701,213.889,28.808,214.301,27.754z"/>
	</g>
</g>
<g>
	<polygon fill="#006838" points="58.3,64.572 34.929,64.572 42.074,-0.446 65.445,-0.446 	"/>
	<polygon fill="#8DC63F" points="22.229,64.572 -2.385,64.572 41.276,-0.446 65.89,-0.446 	"/>
	<polygon fill="#8DC63F" points="59.146,64.572 34.533,64.572 78.194,-0.446 102.808,-0.446 	"/>
</g>
</svg>
